<mxfile host="app.diagrams.net" agent="Mozilla/5.0 (Windows NT 10.0; Win64; x64) AppleWebKit/537.36 (KHTML, like Gecko) Chrome/130.0.0.0 Safari/537.36" version="24.8.3">
  <diagram name="PÃ¡gina-1" id="VnEHIEAj9xrQ_NyMmkGa">
    <mxGraphModel dx="1050" dy="574" grid="0" gridSize="10" guides="1" tooltips="1" connect="1" arrows="1" fold="1" page="1" pageScale="1" pageWidth="827" pageHeight="1169" math="0" shadow="0">
      <root>
        <mxCell id="0" />
        <mxCell id="1" parent="0" />
        <mxCell id="OaBscflGjXsnNaikYzwb-1" value="" style="rounded=0;whiteSpace=wrap;html=1;" vertex="1" parent="1">
          <mxGeometry x="156" y="85" width="62" height="30" as="geometry" />
        </mxCell>
        <mxCell id="OaBscflGjXsnNaikYzwb-13" style="edgeStyle=orthogonalEdgeStyle;rounded=0;orthogonalLoop=1;jettySize=auto;html=1;exitX=0.5;exitY=1;exitDx=0;exitDy=0;entryX=0.5;entryY=0;entryDx=0;entryDy=0;" edge="1" parent="1" source="OaBscflGjXsnNaikYzwb-2" target="OaBscflGjXsnNaikYzwb-3">
          <mxGeometry relative="1" as="geometry">
            <Array as="points">
              <mxPoint x="188" y="218" />
              <mxPoint x="103" y="218" />
            </Array>
          </mxGeometry>
        </mxCell>
        <mxCell id="OaBscflGjXsnNaikYzwb-14" style="edgeStyle=orthogonalEdgeStyle;rounded=0;orthogonalLoop=1;jettySize=auto;html=1;entryX=0.5;entryY=0;entryDx=0;entryDy=0;" edge="1" parent="1" source="OaBscflGjXsnNaikYzwb-2" target="OaBscflGjXsnNaikYzwb-4">
          <mxGeometry relative="1" as="geometry">
            <Array as="points">
              <mxPoint x="188" y="218" />
              <mxPoint x="263" y="218" />
            </Array>
          </mxGeometry>
        </mxCell>
        <mxCell id="OaBscflGjXsnNaikYzwb-2" value="&lt;span style=&quot;text-align: left;&quot;&gt;activate heater&lt;/span&gt;&lt;div style=&quot;text-align: left;&quot;&gt;&lt;span style=&quot;background-color: initial;&quot;&gt;active servo&lt;/span&gt;&lt;/div&gt;" style="rounded=0;whiteSpace=wrap;html=1;strokeWidth=2;" vertex="1" parent="1">
          <mxGeometry x="140" y="141" width="96" height="60" as="geometry" />
        </mxCell>
        <mxCell id="OaBscflGjXsnNaikYzwb-22" style="edgeStyle=orthogonalEdgeStyle;rounded=0;orthogonalLoop=1;jettySize=auto;html=1;exitX=0.5;exitY=1;exitDx=0;exitDy=0;entryX=0.5;entryY=0;entryDx=0;entryDy=0;" edge="1" parent="1" source="OaBscflGjXsnNaikYzwb-3" target="OaBscflGjXsnNaikYzwb-21">
          <mxGeometry relative="1" as="geometry" />
        </mxCell>
        <mxCell id="OaBscflGjXsnNaikYzwb-27" style="edgeStyle=orthogonalEdgeStyle;rounded=0;orthogonalLoop=1;jettySize=auto;html=1;exitX=0;exitY=0.5;exitDx=0;exitDy=0;entryX=0;entryY=0.5;entryDx=0;entryDy=0;" edge="1" parent="1" source="OaBscflGjXsnNaikYzwb-3" target="OaBscflGjXsnNaikYzwb-2">
          <mxGeometry relative="1" as="geometry" />
        </mxCell>
        <mxCell id="OaBscflGjXsnNaikYzwb-3" value="" style="rhombus;whiteSpace=wrap;html=1;strokeWidth=2;" vertex="1" parent="1">
          <mxGeometry x="53" y="238" width="100" height="56" as="geometry" />
        </mxCell>
        <mxCell id="OaBscflGjXsnNaikYzwb-23" style="edgeStyle=orthogonalEdgeStyle;rounded=0;orthogonalLoop=1;jettySize=auto;html=1;exitX=0.5;exitY=1;exitDx=0;exitDy=0;entryX=0.5;entryY=0;entryDx=0;entryDy=0;" edge="1" parent="1" source="OaBscflGjXsnNaikYzwb-4" target="OaBscflGjXsnNaikYzwb-21">
          <mxGeometry relative="1" as="geometry" />
        </mxCell>
        <mxCell id="OaBscflGjXsnNaikYzwb-26" style="edgeStyle=orthogonalEdgeStyle;rounded=0;orthogonalLoop=1;jettySize=auto;html=1;exitX=1;exitY=0.5;exitDx=0;exitDy=0;entryX=1;entryY=0.5;entryDx=0;entryDy=0;" edge="1" parent="1" source="OaBscflGjXsnNaikYzwb-4" target="OaBscflGjXsnNaikYzwb-2">
          <mxGeometry relative="1" as="geometry">
            <mxPoint x="205" y="195" as="targetPoint" />
            <Array as="points">
              <mxPoint x="333" y="266" />
              <mxPoint x="333" y="171" />
            </Array>
          </mxGeometry>
        </mxCell>
        <mxCell id="OaBscflGjXsnNaikYzwb-4" value="" style="rhombus;whiteSpace=wrap;html=1;strokeWidth=2;" vertex="1" parent="1">
          <mxGeometry x="213" y="238" width="100" height="56" as="geometry" />
        </mxCell>
        <mxCell id="OaBscflGjXsnNaikYzwb-19" style="edgeStyle=orthogonalEdgeStyle;rounded=0;orthogonalLoop=1;jettySize=auto;html=1;entryX=0.5;entryY=0;entryDx=0;entryDy=0;" edge="1" parent="1" source="OaBscflGjXsnNaikYzwb-5" target="OaBscflGjXsnNaikYzwb-9">
          <mxGeometry relative="1" as="geometry" />
        </mxCell>
        <mxCell id="OaBscflGjXsnNaikYzwb-38" style="edgeStyle=orthogonalEdgeStyle;rounded=0;orthogonalLoop=1;jettySize=auto;html=1;exitX=0.5;exitY=0;exitDx=0;exitDy=0;entryX=1;entryY=0.25;entryDx=0;entryDy=0;" edge="1" parent="1" source="OaBscflGjXsnNaikYzwb-5" target="OaBscflGjXsnNaikYzwb-2">
          <mxGeometry relative="1" as="geometry" />
        </mxCell>
        <mxCell id="OaBscflGjXsnNaikYzwb-5" value="" style="rhombus;whiteSpace=wrap;html=1;strokeWidth=2;" vertex="1" parent="1">
          <mxGeometry x="642" y="238" width="100" height="56" as="geometry" />
        </mxCell>
        <mxCell id="OaBscflGjXsnNaikYzwb-32" style="edgeStyle=orthogonalEdgeStyle;rounded=0;orthogonalLoop=1;jettySize=auto;html=1;exitX=0.5;exitY=1;exitDx=0;exitDy=0;entryX=1;entryY=0.5;entryDx=0;entryDy=0;" edge="1" parent="1" source="OaBscflGjXsnNaikYzwb-6" target="OaBscflGjXsnNaikYzwb-24">
          <mxGeometry relative="1" as="geometry" />
        </mxCell>
        <mxCell id="OaBscflGjXsnNaikYzwb-35" style="edgeStyle=orthogonalEdgeStyle;rounded=0;orthogonalLoop=1;jettySize=auto;html=1;entryX=0;entryY=0.5;entryDx=0;entryDy=0;" edge="1" parent="1" source="OaBscflGjXsnNaikYzwb-6" target="OaBscflGjXsnNaikYzwb-34">
          <mxGeometry relative="1" as="geometry" />
        </mxCell>
        <mxCell id="OaBscflGjXsnNaikYzwb-6" value="" style="rhombus;whiteSpace=wrap;html=1;strokeWidth=2;" vertex="1" parent="1">
          <mxGeometry x="368" y="238" width="100" height="56" as="geometry" />
        </mxCell>
        <mxCell id="OaBscflGjXsnNaikYzwb-7" value="" style="rounded=0;whiteSpace=wrap;html=1;" vertex="1" parent="1">
          <mxGeometry x="661" y="349" width="62" height="30" as="geometry" />
        </mxCell>
        <mxCell id="OaBscflGjXsnNaikYzwb-10" style="edgeStyle=orthogonalEdgeStyle;rounded=0;orthogonalLoop=1;jettySize=auto;html=1;exitX=0.5;exitY=1;exitDx=0;exitDy=0;entryX=0.5;entryY=0;entryDx=0;entryDy=0;" edge="1" parent="1" source="OaBscflGjXsnNaikYzwb-8" target="OaBscflGjXsnNaikYzwb-2">
          <mxGeometry relative="1" as="geometry" />
        </mxCell>
        <mxCell id="OaBscflGjXsnNaikYzwb-8" value="START" style="text;html=1;align=center;verticalAlign=middle;whiteSpace=wrap;rounded=0;" vertex="1" parent="1">
          <mxGeometry x="157" y="85" width="60" height="30" as="geometry" />
        </mxCell>
        <mxCell id="OaBscflGjXsnNaikYzwb-9" value="END" style="text;html=1;align=center;verticalAlign=middle;whiteSpace=wrap;rounded=0;" vertex="1" parent="1">
          <mxGeometry x="662" y="349" width="60" height="30" as="geometry" />
        </mxCell>
        <mxCell id="OaBscflGjXsnNaikYzwb-15" value="&lt;font style=&quot;font-size: 11px;&quot;&gt;temp equals targer.temp&lt;/font&gt;" style="text;html=1;align=center;verticalAlign=middle;whiteSpace=wrap;rounded=0;" vertex="1" parent="1">
          <mxGeometry x="63" y="252" width="77" height="28" as="geometry" />
        </mxCell>
        <mxCell id="OaBscflGjXsnNaikYzwb-16" value="&lt;font style=&quot;font-size: 11px;&quot;&gt;rpm equals targer.rpm&lt;/font&gt;" style="text;html=1;align=center;verticalAlign=middle;whiteSpace=wrap;rounded=0;" vertex="1" parent="1">
          <mxGeometry x="224" y="253" width="77" height="28" as="geometry" />
        </mxCell>
        <mxCell id="OaBscflGjXsnNaikYzwb-17" value="&lt;font style=&quot;font-size: 11px;&quot;&gt;time equals targer.time&lt;/font&gt;" style="text;html=1;align=center;verticalAlign=middle;whiteSpace=wrap;rounded=0;" vertex="1" parent="1">
          <mxGeometry x="379.5" y="253" width="77" height="28" as="geometry" />
        </mxCell>
        <mxCell id="OaBscflGjXsnNaikYzwb-18" value="&lt;font style=&quot;font-size: 11px;&quot;&gt;targets&amp;nbsp;&lt;/font&gt;&lt;div&gt;&lt;font style=&quot;font-size: 11px;&quot;&gt;cleared ?&lt;/font&gt;&lt;/div&gt;" style="text;html=1;align=center;verticalAlign=middle;whiteSpace=wrap;rounded=0;" vertex="1" parent="1">
          <mxGeometry x="653.5" y="252" width="77" height="28" as="geometry" />
        </mxCell>
        <mxCell id="OaBscflGjXsnNaikYzwb-25" style="edgeStyle=orthogonalEdgeStyle;rounded=0;orthogonalLoop=1;jettySize=auto;html=1;entryX=0;entryY=0.5;entryDx=0;entryDy=0;" edge="1" parent="1" source="OaBscflGjXsnNaikYzwb-21" target="OaBscflGjXsnNaikYzwb-24">
          <mxGeometry relative="1" as="geometry" />
        </mxCell>
        <mxCell id="OaBscflGjXsnNaikYzwb-21" value="start time" style="rounded=0;whiteSpace=wrap;html=1;strokeWidth=2;" vertex="1" parent="1">
          <mxGeometry x="143" y="334" width="77" height="37" as="geometry" />
        </mxCell>
        <mxCell id="OaBscflGjXsnNaikYzwb-41" style="edgeStyle=orthogonalEdgeStyle;rounded=0;orthogonalLoop=1;jettySize=auto;html=1;exitX=0.5;exitY=0;exitDx=0;exitDy=0;entryX=0;entryY=0.5;entryDx=0;entryDy=0;" edge="1" parent="1" source="OaBscflGjXsnNaikYzwb-24" target="OaBscflGjXsnNaikYzwb-6">
          <mxGeometry relative="1" as="geometry">
            <Array as="points">
              <mxPoint x="348" y="334" />
              <mxPoint x="348" y="266" />
            </Array>
          </mxGeometry>
        </mxCell>
        <mxCell id="OaBscflGjXsnNaikYzwb-24" value="count ticks" style="rounded=0;whiteSpace=wrap;html=1;strokeWidth=2;" vertex="1" parent="1">
          <mxGeometry x="299" y="334" width="77" height="37" as="geometry" />
        </mxCell>
        <mxCell id="OaBscflGjXsnNaikYzwb-28" value="&lt;font face=&quot;Times New Roman&quot;&gt;&lt;b&gt;YES&lt;/b&gt;&lt;/font&gt;" style="text;html=1;align=center;verticalAlign=middle;whiteSpace=wrap;rounded=0;" vertex="1" parent="1">
          <mxGeometry x="89" y="287" width="60" height="30" as="geometry" />
        </mxCell>
        <mxCell id="OaBscflGjXsnNaikYzwb-29" value="&lt;font face=&quot;Times New Roman&quot;&gt;&lt;b&gt;YES&lt;/b&gt;&lt;/font&gt;" style="text;html=1;align=center;verticalAlign=middle;whiteSpace=wrap;rounded=0;" vertex="1" parent="1">
          <mxGeometry x="248" y="285" width="60" height="30" as="geometry" />
        </mxCell>
        <mxCell id="OaBscflGjXsnNaikYzwb-30" value="&lt;font face=&quot;Times New Roman&quot;&gt;&lt;b&gt;NO&lt;/b&gt;&lt;/font&gt;" style="text;html=1;align=center;verticalAlign=middle;whiteSpace=wrap;rounded=0;" vertex="1" parent="1">
          <mxGeometry x="16" y="238" width="60" height="30" as="geometry" />
        </mxCell>
        <mxCell id="OaBscflGjXsnNaikYzwb-31" value="&lt;font face=&quot;Times New Roman&quot;&gt;&lt;b&gt;NO&lt;/b&gt;&lt;/font&gt;" style="text;html=1;align=center;verticalAlign=middle;whiteSpace=wrap;rounded=0;" vertex="1" parent="1">
          <mxGeometry x="288" y="236" width="60" height="30" as="geometry" />
        </mxCell>
        <mxCell id="OaBscflGjXsnNaikYzwb-33" value="&lt;font face=&quot;Times New Roman&quot;&gt;&lt;b&gt;NO&lt;/b&gt;&lt;/font&gt;" style="text;html=1;align=center;verticalAlign=middle;whiteSpace=wrap;rounded=0;" vertex="1" parent="1">
          <mxGeometry x="404" y="287" width="60" height="30" as="geometry" />
        </mxCell>
        <mxCell id="OaBscflGjXsnNaikYzwb-36" style="edgeStyle=orthogonalEdgeStyle;rounded=0;orthogonalLoop=1;jettySize=auto;html=1;exitX=1;exitY=0.5;exitDx=0;exitDy=0;" edge="1" parent="1" source="OaBscflGjXsnNaikYzwb-34">
          <mxGeometry relative="1" as="geometry">
            <mxPoint x="640.4000244140625" y="266" as="targetPoint" />
          </mxGeometry>
        </mxCell>
        <mxCell id="OaBscflGjXsnNaikYzwb-34" value="&lt;div style=&quot;text-align: left;&quot;&gt;update targets&lt;/div&gt;" style="rounded=0;whiteSpace=wrap;html=1;strokeWidth=2;" vertex="1" parent="1">
          <mxGeometry x="512" y="245" width="96" height="42" as="geometry" />
        </mxCell>
        <mxCell id="OaBscflGjXsnNaikYzwb-37" value="&lt;font face=&quot;Times New Roman&quot;&gt;&lt;b&gt;YES&lt;/b&gt;&lt;/font&gt;" style="text;html=1;align=center;verticalAlign=middle;whiteSpace=wrap;rounded=0;" vertex="1" parent="1">
          <mxGeometry x="679" y="285" width="60" height="30" as="geometry" />
        </mxCell>
        <mxCell id="OaBscflGjXsnNaikYzwb-39" value="&lt;font face=&quot;Times New Roman&quot;&gt;&lt;b&gt;NO&lt;/b&gt;&lt;/font&gt;" style="text;html=1;align=center;verticalAlign=middle;whiteSpace=wrap;rounded=0;" vertex="1" parent="1">
          <mxGeometry x="679" y="213" width="60" height="30" as="geometry" />
        </mxCell>
        <mxCell id="OaBscflGjXsnNaikYzwb-40" value="&lt;font face=&quot;Times New Roman&quot;&gt;&lt;b&gt;YES&lt;/b&gt;&lt;/font&gt;" style="text;html=1;align=center;verticalAlign=middle;whiteSpace=wrap;rounded=0;" vertex="1" parent="1">
          <mxGeometry x="444" y="238" width="60" height="30" as="geometry" />
        </mxCell>
      </root>
    </mxGraphModel>
  </diagram>
</mxfile>
